# xmcd
#
# Track frame offsets:
#	150
#	18208
#	34040
#	49915
#	64788
#	82236
#	98087
#	113168
#	126568
#	142722
#
# Disc length: 2188 seconds
#
# Revision: 1
# Processed by: cddbd v1.5.1PL0 Copyright (c) Steve Scherf et al.
# Submitted via: audiograbber 1.83.01
#
DISCID=83088a0a
DTITLE=Marsha Thompson - Moment In Time
DYEAR=1997
DGENRE=Country
TTITLE0=Main Street Lady
TTITLE1=Forever Free
TTITLE2=Missing You Tonight
TTITLE3=Summerfly
TTITLE4=Cherokee
TTITLE5=Breathing Room
TTITLE6=Blame in on The Dance
TTITLE7=I Don`t Want Any More Heartache
TTITLE8=Mummy,Daddy`s Crying
TTITLE9=Moment In Time
EXTD=
EXTT0=
EXTT1=
EXTT2=
EXTT3=
EXTT4=
EXTT5=
EXTT6=
EXTT7=
EXTT8=
EXTT9=
PLAYORDER=
